<svg width="24" height="24" viewBox="0 0 24 24" fill="none" xmlns="http://www.w3.org/2000/svg"> <path fill-rule="evenodd" clip-rule="evenodd" d="M12 7.75C11.0335 7.75 10.25 8.5335 10.25 9.5C10.25 10.4665 11.0335 11.25 12 11.25C12.9665 11.25 13.75 10.4665 13.75 9.5C13.75 8.5335 12.9665 7.75 12 7.75ZM8.75 9.5C8.75 7.70507 10.2051 6.25 12 6.25C13.7949 6.25 15.25 7.70507 15.25 9.5C15.25 11.2949 13.7949 12.75 12 12.75C10.2051 12.75 8.75 11.2949 8.75 9.5Z" fill="black"/> <path fill-rule="evenodd" clip-rule="evenodd" d="M19.5736 8.66416C17.8061 0.78438 6.20298 0.776064 4.4263 8.65453C3.92771 10.8772 4.53594 12.9677 5.64581 14.8712C6.7601 16.7823 8.34545 18.4443 9.70294 19.7748C9.70324 19.7751 9.70355 19.7754 9.70385 19.7757L9.98821 20.0525C9.9889 20.0532 9.98959 20.0539 9.99028 20.0545C10.9528 20.9764 11.5456 21.2503 12.0124 21.2449C12.4842 21.2395 13.0841 20.9468 14.0536 20.0027L14.055 20.0014C15.4247 18.6742 17.0789 16.9922 18.2558 15.0403C19.428 13.096 20.0867 10.951 19.5736 8.66419L19.5736 8.66416ZM8.9461 21.1314L8.89129 21.0786L8.89035 21.0777C8.81273 21.0022 8.73386 20.9253 8.65394 20.847C7.2824 19.5028 5.57222 17.723 4.34999 15.6267C3.12314 13.5226 2.35382 11.0399 2.96276 8.32581L2.96293 8.32505C5.09151 -1.11606 18.9197 -1.10423 21.0372 8.33585L20.3054 8.5L21.0372 8.33585C21.6639 11.1291 20.831 13.674 19.5403 15.8147C18.2545 17.9475 16.4747 19.7454 15.0992 21.0782C14.0956 22.0554 13.1259 22.7322 12.0296 22.7448C10.9283 22.7575 9.95462 22.0979 8.95039 21.1356L8.9461 21.1314Z" fill="black"/> </svg>