<svg width="24" height="24" viewBox="0 0 24 24" fill="none" xmlns="http://www.w3.org/2000/svg"> <g clip-path="url(#clip0_511_1493)"> <path d="M13.7818 11.6726C13.7166 11.4932 13.5409 11.3917 13.3529 11.425C12.367 11.5899 9.35767 12.2472 8.16027 14.3455C7.18251 16.039 7.66078 18.158 9.23236 19.0654C10.8039 19.9727 12.876 19.3312 13.8537 17.6377C15.0477 15.5778 14.1263 12.6106 13.7818 11.6726Z" fill="#BFBFBF"/> <path fill-rule="evenodd" clip-rule="evenodd" d="M13.2265 10.6857C13.7712 10.5914 14.2968 10.8956 14.4863 11.4153C14.6696 11.9147 15.0068 12.9531 15.1401 14.1516C15.2719 15.337 15.216 16.7826 14.5029 18.0132C13.3453 20.0176 10.8331 20.8556 8.85734 19.7149C6.88091 18.5738 6.35417 15.9756 7.50979 13.9721C8.22339 12.7228 9.44355 11.9493 10.536 11.4727C11.638 10.992 12.7018 10.7736 13.2265 10.6857Z" fill="black"/> <path fill-rule="evenodd" clip-rule="evenodd" d="M21.9687 7.81266C22.0966 8.16103 22.3318 8.88492 22.4251 9.72367C22.5169 10.5494 22.483 11.59 21.9624 12.4888C21.1198 13.9478 19.275 14.5792 17.8054 13.7308C16.3352 12.882 15.9625 10.9664 16.8032 9.50845C17.3239 8.59713 18.2053 8.04554 18.9675 7.71306C19.7393 7.37637 20.4815 7.22412 20.8473 7.16281C21.3314 7.07933 21.8003 7.35081 21.9687 7.81266Z" fill="#BFBFBF"/> <path d="M7.8504 4.70977C7.79885 4.56789 7.65983 4.48762 7.51118 4.51392C6.73145 4.64434 4.35142 5.16417 3.40443 6.82369C2.63114 8.16307 3.00939 9.83895 4.25232 10.5566C5.49525 11.2742 7.13399 10.7668 7.90728 9.42742C8.85153 7.79835 8.1228 5.45164 7.8504 4.70977Z" fill="#BFBFBF"/> <path fill-rule="evenodd" clip-rule="evenodd" d="M8.55498 4.45244C8.70229 4.85382 8.97329 5.68805 9.08059 6.653C9.18646 7.60497 9.14481 8.78779 8.55653 9.80306C7.60336 11.4533 5.52454 12.157 3.87743 11.2061C2.22965 10.2547 1.80291 8.09969 2.75407 6.45033C3.34246 5.42042 4.34268 4.79098 5.22076 4.40795C6.10843 4.02074 6.96347 3.84526 7.38501 3.77462C7.8904 3.68734 8.37916 3.9703 8.55498 4.45244Z" fill="#BFBFBF"/> </g> <defs> <clipPath id="clip0_511_1493"> <rect width="24" height="24" fill="white"/> </clipPath> </defs> </svg>