<svg width="24" height="24" viewBox="0 0 24 24" fill="none" xmlns="http://www.w3.org/2000/svg"> <path d="M11.8549 14.5679L12.7735 15.7079L13.6921 14.5679M15.1799 15.4419L14.6846 16.8346L16.0985 17.0873M10.3852 15.4419L10.8805 16.8346L9.46655 17.0873M10.3852 20.4959L10.8805 19.1031L9.46655 18.8504M15.1979 20.5833L14.7026 19.1906L16.1165 18.9379M11.8549 21.4079L12.7735 20.2679L13.6921 21.4079M12.7735 14.1879L12.7735 21.7879M15.9557 16.0879L9.59139 19.8879M15.9818 19.9149L9.6175 16.1149" stroke="#BFBFBF" stroke-linecap="round"/> <path d="M7.42764 15.764C0.993747 15.3926 1.007 8.0848 6.61043 7.0927C6.69057 7.07851 6.75848 7.01463 6.77848 6.93574C8.75277 -0.848787 20.7744 2.67971 18.2826 9.32796C18.2309 9.46598 18.333 9.62298 18.4803 9.62928C22.2354 9.78995 22.8812 15.4368 18.1608 15.7834" stroke="black" stroke-width="1.5" stroke-linecap="round"/> </svg>