<svg width="24" height="24" viewBox="0 0 24 24" fill="none" xmlns="http://www.w3.org/2000/svg"> <path d="M7.34163 15.8168C0.784126 15.4383 0.798614 7.98901 6.5114 6.97978C6.59155 6.96562 6.65948 6.90172 6.67946 6.82282C8.68997 -1.11562 20.9499 2.48441 18.4014 9.26379C18.3495 9.40176 18.4517 9.55884 18.599 9.56491C22.4309 9.72292 23.0922 15.4832 18.2793 15.8365" stroke="black" stroke-width="1.5" stroke-linecap="round"/> <path d="M7.49844 19.0559L6.38816 20.9968" stroke="#BFBFBF" stroke-width="1.5" stroke-linecap="round"/> <path d="M18.4984 19.0559L17.3882 20.9968" stroke="#BFBFBF" stroke-width="1.5" stroke-linecap="round"/> <path d="M4.19952 18.3234L3.65321 19.2989" stroke="#BFBFBF" stroke-width="1.5" stroke-linecap="round"/> <path d="M10.1088 17.4646H11.5204V21.0821C11.5204 21.6147 12.1234 21.8659 12.4432 21.4639L15.9014 17.143C16.2029 16.7662 15.9607 16.1784 15.5039 16.1784H14.0923V12.5609C14.0923 12.0283 13.4893 11.7771 13.1696 12.179L9.71141 16.4999C9.41447 16.8768 9.65658 17.4646 10.1088 17.4646Z" stroke="#BFBFBF" stroke-width="1.5" stroke-miterlimit="10" stroke-linecap="round" stroke-linejoin="round"/> </svg>